<svg width="796" height="583" viewBox="0 0 796 583" fill="none" xmlns="http://www.w3.org/2000/svg">
<path d="M109.999 149.049C213.579 53.4691 359.089 14.2192 498.169 37.6292C660.529 64.9592 805.309 196.569 794.479 370.739C777.819 638.639 360.969 598.919 185.739 538.289C147.749 525.149 58.8887 459.529 29.8687 430.079C-11.9913 387.589 -8.84095 271.889 32.979 229.329C47.099 214.949 74.6887 209.779 77.6387 189.029C81.8087 159.639 71.5488 123.319 75.5088 92.8392C74.2888 86.6392 62.4288 80.8592 57.2388 74.3592C28.5488 38.4192 64.5488 -12.2908 108.239 2.69915C136.239 12.3092 146.359 49.4892 129.359 73.1192C125.319 78.7392 109.989 87.8091 109.989 92.7891V149.049H109.999ZM91.0088 34.6392C77.4188 36.5892 79.219 59.4391 94.919 57.2691C107.559 55.5191 106.439 32.4292 91.0088 34.6392ZM619.819 211.029C614.309 175.759 579.229 98.4692 546.379 83.5692C509.949 67.0392 431.269 61.7293 391.219 63.9793C378.359 64.6993 299.969 75.6292 296.039 83.6392L333.839 110.079C351.789 126.299 367.599 144.409 379.079 165.879C383.579 174.299 395.509 208.969 400.949 210.599C413.689 214.419 447.149 206.879 462.419 206.349C515.169 204.519 567.349 209.439 619.819 211.019V211.029ZM376.219 215.439C369.819 175.289 339.429 134.849 305.019 113.639C296.649 108.479 270.829 95.1192 262.169 94.4092C246.879 93.1592 178.579 135.229 164.029 146.809C157.269 152.199 116.869 188.409 121.479 194.939C159.499 198.249 181.829 231.399 192.749 264.919C209.559 316.579 207.659 419.479 160.579 455.629C151.539 462.569 139.999 464.549 132.969 472.769C155.319 484.189 175.289 495.459 198.999 504.359C217.709 511.379 256.219 525.129 274.819 527.339C279.329 527.879 282.219 528.829 286.789 526.719C295.239 522.829 327.199 477.729 323.579 472.829C283.529 460.149 249.339 422.139 245.529 379.769C240.769 326.759 248.699 275.109 295.299 243.609C320.669 226.459 347.149 222.529 376.219 215.429V215.439ZM649.679 514.109C685.779 509.179 717.399 477.099 735.079 446.819C792.989 347.639 761.959 248.689 686.489 170.799C662.499 146.039 631.189 120.889 599.169 107.729C607.749 125.499 618.289 142.059 625.529 160.569C630.439 173.099 637.119 205.239 643.999 213.279C649.259 219.429 666.519 222.709 675.649 227.559C751.649 267.899 749.069 394.439 701.159 454.249C686.909 472.029 684.069 467.459 667.419 475.629C654.679 481.879 656.599 502.809 649.679 514.119V514.109ZM87.0391 429.149C127.029 437.859 141.059 441.249 157.029 401.579C171.909 364.619 172.469 325.329 164.039 286.729C156.619 252.759 134.849 216.799 94.3687 233.309C74.8187 241.279 90.049 242.929 97.149 252.579C125.339 287.599 126.559 362.739 106.289 401.359L87.0391 429.149ZM54.2789 268.809C31.8589 272.789 32.749 334.979 34.129 352.339C35.479 369.449 44.2189 413.119 68.7789 393.689C84.6789 381.109 88.2687 341.359 87.1187 322.319C86.0987 305.429 78.3589 264.539 54.2789 268.819V268.809ZM619.289 294.139C572.689 299.459 577.849 405.859 620.929 406.299C671.199 406.809 672.469 288.059 619.289 294.139ZM377.169 303.669C352.459 328.529 358.179 412.999 402.219 405.719C437.079 399.959 439.229 336.489 422.759 310.489C412.359 294.069 391.329 289.419 377.159 303.669H377.169ZM638.189 481.999C575.279 490.409 512.219 492.709 448.639 491.259L347.719 479.619C345.669 479.589 344.539 480.829 343.109 482.019C334.899 488.809 320.389 525.109 309.799 534.779C411.509 553.719 520.819 559.009 620.559 528.079L638.189 482.009V481.999Z" fill="white"/>
</svg>
